<?xml version="1.0" encoding="UTF-8" standalone="no"?><svg xmlns:svg="http://www.w3.org/2000/svg" xmlns="http://www.w3.org/2000/svg" version="1.1" style="overflow:visible" viewBox="-250 -250 500 500" height="2000px" width="2000px"><rect fill-opacity="0" fill="rgb(0,0,0)" height="500" width="500" y="-250" x="-250" /><svg version="1.1" y="-250" x="-250" viewBox="-250 -250 500 500" height="500px" width="500px" style="overflow:visible"><g transform="rotate(0,0,0)" stroke-linejoin="round" fill="#fff"><path stroke-linecap="butt" stroke-linejoin="round" stroke-width="2" stroke-opacity="1" stroke="rgb(136,136,136)" fill="rgb(254,128,128)" d="m89.889999-34.26l-3.4926-5.6669l4.1102-18.456l-9.2658-4.1121l-3.7776 5.7426l7.028 3.9064l-2.0926 6.1166l-8.0452-1.0182l-0.81924-8.011101l-4.5409-2.0841l-3.1119 9.5291l-5.9871 1.7809l-1.0605 6.7294l13.805 17.178z" /><path stroke-linecap="butt" stroke-linejoin="round" stroke-width="2" stroke-opacity="1" stroke="rgb(136,136,136)" fill="rgb(254,128,128)" d="m68.459999-2.92l-1.0186-11.456l3.6595-4.5382l3.8328-12.73l14.961-2.6165l3.5183 17.304l-8.7649 16.527999l-11.829 5.8239z" /><path stroke-linecap="butt" stroke-linejoin="round" stroke-width="2" stroke-opacity="1" stroke="rgb(136,136,136)" fill="rgb(254,128,128)" d="m58.839999-39.81l-0.46568 6.8306l-4.0948 3.502l3.8883 5.9091l-5.126 13.648l17.996 19.162l3.8971-40.892l0.73108-5.8233z" /><path stroke-linecap="butt" stroke-linejoin="round" stroke-width="2" stroke-opacity="1" stroke="rgb(136,136,136)" fill="rgb(254,128,128)" d="m44.43 1.56l0.98167 17.31l12.41 11.561l6.288-31.472l-11.076-8.8805z" /><path stroke-linecap="butt" stroke-linejoin="round" stroke-width="2" stroke-opacity="1" stroke="rgb(136,136,136)" fill="rgb(254,128,128)" d="m67.149999 22.129999l1.2925-8.0894l5.0005-3.1732l5.7884 1.9464l0.98166-8.3172l4.4263-4.9326l-3.1398-1.5834l-5.5394 3.2563l-7.5087-4.1631l-4.3436 1.8853l-8.4477 18.768l4.3951 6.9347z" /><path stroke-linecap="butt" stroke-linejoin="round" stroke-width="2" stroke-opacity="1" stroke="rgb(136,136,136)" fill="rgb(254,128,128)" d="m44.43 1.56l-5.2153 11.096l-10.672 4.132799l-6.2579 9.5192l-17.352 5.3587l-1.4093 5.3846l21.673 7.8569l7.7676-7.9066l9.3838-6.7015l3.0649-11.43l2.3263-8.9131z" /><path stroke-linecap="butt" stroke-linejoin="round" stroke-width="2" stroke-opacity="1" stroke="rgb(136,136,136)" fill="rgb(254,128,128)" d="m-50.35 83.06l-0.9526 8.1472l4.0358 8.120799l6.5056 3.3803l4.8221-4.6904l-2.5919-18.87z" /><path stroke-linecap="butt" stroke-linejoin="round" stroke-width="2" stroke-opacity="1" stroke="rgb(136,136,136)" fill="rgb(254,128,128)" d="m-38.26 93.16l2.4711-12.688l7.2488-12.643l6.0677-0.58557l7.6958-0.92045l-3.223 5.9667l-5.365 5.8226l5.7412 6.8364l-1.7282 3.4672l-3.5232-1.3863l-7.0128 3.1808l-0.16759 3.0328l-5.8853 4.772z" /><path stroke-linecap="butt" stroke-linejoin="round" stroke-width="2" stroke-opacity="1" stroke="rgb(136,136,136)" fill="rgb(254,128,128)" d="m-39.930001 81.94l-0.88277-4.4829l5.641-6.3944l3.5807 5.5604l-1.7106 13.616l-4.957 2.9181l-4.5867-4.8909l3.1001-2.7966z" /><path stroke-linecap="butt" stroke-linejoin="round" stroke-width="2" stroke-opacity="1" stroke="rgb(136,136,136)" fill="rgb(254,128,128)" d="m-37.45 74.579999l0.66975-7.237l-7.9538-0.0264l1.2895 7.7678l-0.56651 3.1031l-6.339 4.8697l10.42-1.1145z" /><path stroke-linecap="butt" stroke-linejoin="round" stroke-width="2" stroke-opacity="1" stroke="rgb(136,136,136)" fill="rgb(254,128,128)" d="m-31.590001 76.63l-4.6946-8.544l3.2489-6.0461l8.6115-9.0614l8.2997 7.1092l-6.3456 7.1595l-2.7454 6.3555l-3.6412-0.18187z" /><path stroke-linecap="butt" stroke-linejoin="round" stroke-width="2" stroke-opacity="1" stroke="rgb(136,136,136)" fill="rgb(254,128,128)" d="m-31.590001 76.63l-5.859-2.0458l-0.90396-4.4395l-3.7573 0.49818l-8.4492-7.2898l2.0709-10.675l6.157-1.752l1.9193 2.075699l-2.2194 2.2467l1.1749 1.3878l8.421 5.4044l-0.45124 6.7455z" /><path stroke-linecap="butt" stroke-linejoin="round" stroke-width="2" stroke-opacity="1" stroke="rgb(136,136,136)" fill="rgb(254,128,128)" d="m-41.460001 56.639999l2.9471-0.94925l2.3441 2.1479l8.9841-3.458l-1.2668-5.9006l6.0738-5.877l12.358 5.4396l-2.6895 8.6757l-12.417 0.46132l-7.9122 4.8647l-5.0112-1.377z" /><path stroke-linecap="butt" stroke-linejoin="round" stroke-width="2" stroke-opacity="1" stroke="rgb(136,136,136)" fill="rgb(254,128,128)" d="m24.62 76.74l-6.0381-2.7061l2.7875-9.3189l5.4464 1.2025l6.6832-0.3247l4.214 4.101899l-3.2158 7.0627l-4.5784-3.4025l-3.9127 0.3842z" /><path stroke-linecap="butt" stroke-linejoin="round" stroke-width="2" stroke-opacity="1" stroke="rgb(136,136,136)" fill="rgb(254,128,128)" d="m40.97 60.8l-1.2318-9.0355l-12.433-3.5604l-10.98 7.6899l4.7463 7.3633l22.009 4.412z" /><path stroke-linecap="butt" stroke-linejoin="round" stroke-width="2" stroke-opacity="1" stroke="rgb(136,136,136)" fill="rgb(254,128,128)" d="m26.81 65.92l-5.0526-1.1231l1.7985-3.8911l16.424 3.6675l2.8703 1.4424l-2.3872 1.876l-2.7561 1.8054l-5.5791-1.1236z" /><path stroke-linecap="butt" stroke-linejoin="round" stroke-width="2" stroke-opacity="1" stroke="rgb(136,136,136)" fill="rgb(254,128,128)" d="m19.8 56.759999l-13.131-1.3428l1.984 19.78l13.632-5.3316l4.5216-3.9542l-3.2541-5.0141z" /><path stroke-linecap="butt" stroke-linejoin="round" stroke-width="2" stroke-opacity="1" stroke="rgb(136,136,136)" fill="rgb(254,128,128)" d="m32.97 37.009999l1.7762-10.412l6.3539-1.3686l4.3183-6.3504l8.688 3.4016l1.5622-4.545l11.49 4.4027l-2.2428 19.299l-4.4472 3.0048l-19.165 3.5751z" /><path stroke-linecap="butt" stroke-linejoin="round" stroke-width="2" stroke-opacity="1" stroke="rgb(136,136,136)" fill="rgb(254,128,128)" d="m6.5 36.31l-5.2073 2.028099l-9.4312 18.18l3.3576 17.282l12.011-0.8739l2.0478-7.2807l1.5868-7.2522l8.934-1.6296l4.8715-8.8962l-2.2213-7.6652l-2.0802-6.2577z" /><path stroke-linecap="butt" stroke-linejoin="round" stroke-width="2" stroke-opacity="1" stroke="rgb(136,136,136)" fill="rgb(254,128,128)" d="m9.279999 65.649998l-7.5879 5.5312l-9.9922 4.3457l2.0859 6.1172l11.846 3.8516l6.8027-7.0644l1.6387-2.4336v-0.002l4.4355-0.38281l1.0527 2.541l-2.4551 1.0684l-1.1445 6.7148l2.9688 1.5547l5.3926-5.4668l0.28906-5.2871l-2.541-2.5312l0.21485-4.3359l-6.3164-0.90039l-3.4688 2.9102l-3.2207-6.2305z" /><path stroke-linecap="butt" stroke-linejoin="round" stroke-width="2" stroke-opacity="1" stroke="rgb(136,136,136)" fill="rgb(254,128,128)" d="m-6.22 81.639999l-6.3518 0.84417l0.79138-3.1017l-3.3657-1.7968l-1.8859 0.29154l-0.9704-5.5879l-1.1483-3.5189l1.5423-7.9247l9.2238 0.44353l5.4008 8.0435l4.6694 1.8436l-7.369 7.3186z" /><path stroke-linecap="butt" stroke-linejoin="round" stroke-width="2" stroke-opacity="1" stroke="rgb(136,136,136)" fill="rgb(254,128,128)" d="m-25.120001 57.17l3.6658-2.5255l7.0026-0.55857l-0.10815-5.0039l0.35663-7.2747l9.7138-3.1409l6.5682 6.1603l-1.9742 8.4984l-3.8668 3.1909l2.2327 8.9514l-1.4462 3.8649l-7.8028-1.4143l-1.4448-3.8317l-4.153102 0.25584l-2.7663 4.4278l-3.3243-1.5274l1.1-5.9356z" /><path stroke-linecap="butt" stroke-linejoin="round" stroke-width="2" stroke-opacity="1" stroke="rgb(136,136,136)" fill="rgb(254,128,128)" d="m-11.050001 44.43l3.8422-13.297l2.025599-1.6234l1.4273-6.3172l3.3324-0.57034l2.0141-4.1182l-12.223 1.945l-1.5781 12.327l-10.156 9.8188l7.8116 6.4887z" /><path stroke-linecap="butt" stroke-linejoin="round" stroke-width="2" stroke-opacity="1" stroke="rgb(136,136,136)" fill="rgb(254,128,128)" d="m-11.050001 44.43l-1.4303-3.9168l3.2469-7.7572l2.0257-1.6235l1.848 4.0316l4.518 0.68069l1.3031-3.5394l4.4806-0.63752l1.5692 4.6401l-4.426 8.5187l-6.918-3.0131z" /><path stroke-linecap="butt" stroke-linejoin="round" stroke-width="2" stroke-opacity="1" stroke="rgb(136,136,136)" fill="rgb(254,128,128)" d="m-43.44 75.079999l-6.4794 0.34829l-5.1275-4.283l-6.6172-0.16308l-3.6892-5.0177l8.1991-14.245l8.669 0.94933l0.55192 7.5283l5.5627 5.3192l0.26366 5.1178z" /><path stroke-linecap="butt" stroke-linejoin="round" stroke-width="2" stroke-opacity="1" stroke="rgb(136,136,136)" fill="rgb(254,128,128)" d="m-59.32 60.8l-5.8024 1.8036l-15.351 1.3889l-1.5154-4.598l-0.61771-5.4386l6.0717-1.4183l4.441-1.4316l8.2112 2.095899l6.7228-1.4808l0.74683 8.4362z" /><path stroke-linecap="butt" stroke-linejoin="round" stroke-width="2" stroke-opacity="1" stroke="rgb(136,136,136)" fill="rgb(254,128,128)" d="m-59.23 60.779999l-4.3974-0.36234l-2.311-3.3668l-6.2173-0.96981l-6.2957 4.6148l-4.0445 6.5934l3.7825 6.2193l4.8473-0.22534l4.3689 2.5796l7.8272-4.8791l-1.2728-4.3274z" /><path stroke-linecap="butt" stroke-linejoin="round" stroke-width="2" stroke-opacity="1" stroke="rgb(136,136,136)" fill="rgb(254,128,128)" d="m-76.53 52.54l-5.2311-3.1636l-7.1891 1.1392l-1.1023 2.8738l-15.557 10.212l-3.2059 0.85427l-3.6316 6.6805l5.6936 4.6037l17.049-7.5021l7.7199-8.841z" /><path stroke-linecap="butt" stroke-linejoin="round" stroke-width="2" stroke-opacity="1" stroke="rgb(136,136,136)" fill="rgb(254,128,128)" d="m-78.45 60.69l-3.5377-1.3014l-4.8434-0.82355l-4.2564 4.9615l-7.525 0.0324l-3.6842 7.2455l-1.2596 3.5188l2.5574 1.6874l5.0274-2.8187l2.039499 3.933l15.219-3.6221z" /><path stroke-linecap="butt" stroke-linejoin="round" stroke-width="2" stroke-opacity="1" stroke="rgb(136,136,136)" fill="rgb(254,128,128)" d="m-102.29 70.82l-5.2658 2.1659l-1.8966-4.2585l0.63997-4.2644l-6.9754 4.4992l-8.4721-0.56604l-0.27689 9.3118l14.113 0.30063l7.4362 4.5882l1.9952-6.5706z" /><path stroke-linecap="butt" stroke-linejoin="round" stroke-width="2" stroke-opacity="1" stroke="rgb(136,136,136)" fill="rgb(254,128,128)" d="m-66.44 77.43l-10.238 1.5829l-0.21933 5.3855l9.1505 1.5012l6.0051-3.2099z" /><path stroke-linecap="butt" stroke-linejoin="round" stroke-width="2" stroke-opacity="1" stroke="rgb(136,136,136)" fill="rgb(254,128,128)" d="m-61.740001 82.69l2.7315 0.90186l0.0981 7.6262l-7.6302 5.2625l-7.5098-3.3203l-5.5606-4.0333l2.7155-4.7281z" /><path stroke-linecap="butt" stroke-linejoin="round" stroke-width="2" stroke-opacity="1" stroke="rgb(136,136,136)" fill="rgb(254,128,128)" d="m-76.9 84.41l-9.2533-0.0866l-2.5224-3.6652l-4.9136 2.6632l-1.5042 4.205l-6.5901 3.7774l1.3109 12.818l2.4766 0.8584l20.418-17.694z" /><path stroke-linecap="butt" stroke-linejoin="round" stroke-width="2" stroke-opacity="1" stroke="rgb(136,136,136)" fill="rgb(254,128,128)" d="m-97.89 104.97l-0.54895 2.7056l5.4692 0.23026l7.696-11.286l8.6812-2.1974l6.0086 7.3192l4.0449-5.2599l-10.915-9.2966l-7.9701 0.57517l-5.5204 5.7087z" /><path stroke-linecap="butt" stroke-linejoin="round" stroke-width="2" stroke-opacity="1" stroke="rgb(136,136,136)" fill="rgb(254,128,128)" d="m-132.82 77.519999l-8.3036 7.1596l3.1569 8.1463l1.192 3.264l8.6671 2.161l6.6782-12.671l-3.1155-7.8767z" /><path stroke-linecap="butt" stroke-linejoin="round" stroke-width="2" stroke-opacity="1" stroke="rgb(136,136,136)" fill="rgb(254,128,128)" d="m-121.43 85.579999l3.3948 1.6269l3.9333-2.0427l2.4334 4.6996l-4.7351 4.180399l5.1252 1.2213l1.4141 8.112299l-2.9696 2.031499l-11.963-0.0671l-4.4618-10.773l2.2936-6.7822z" /><path stroke-linecap="butt" stroke-linejoin="round" stroke-width="2" stroke-opacity="1" stroke="rgb(136,136,136)" fill="rgb(254,128,128)" d="m-136.77 96.089999l1.7954 8.4396l-6.171 9.0096l1.625 4.0803l13.334 1.328l3.4652-17.057l-1.8055-5.8174l-4.7273-1.5035z" /><path stroke-linecap="butt" stroke-linejoin="round" stroke-width="2" stroke-opacity="1" stroke="rgb(136,136,136)" fill="rgb(254,128,128)" d="m-122.72 101.889999l-6.2002 5.593l0.66386 7.8973l-6.7062 0.87138l-1.3166 8.6734l5.7838 5.1184l3.6187 2.3646l10.406-23.071l3.643-3.9288z" /><path stroke-linecap="butt" stroke-linejoin="round" stroke-width="2" stroke-opacity="1" stroke="rgb(136,136,136)" fill="rgb(254,128,128)" d="m-134.96 116.25l-6.1823-2.713l-4.2256 0.68089l-1.1889 6.97l2.307 4.4157l-3.4999 3.6032l0.4707 2.8789l5.432 2.498l1.3387-1.6966l-1.0324-4.1989l2.7291-2.1599l2.0709 6.8246l-3.0171 3.3354l-0.38952 1.7706l8.1608-3.2479l-0.46656-3.9279l1.9604-1.241z" /><path stroke-linecap="butt" stroke-linejoin="round" stroke-width="2" stroke-opacity="1" stroke="rgb(136,136,136)" fill="rgb(254,128,128)" d="m-137.96 92.82l-3.9396 0.0299l0.12876 3.3456l-5.7463 0.24753l-0.45306-9.5237l2.7933-4.0732l4.059999 1.8274l6.5222 2.7709z" /><path stroke-linecap="butt" stroke-linejoin="round" stroke-width="2" stroke-opacity="1" stroke="rgb(136,136,136)" fill="rgb(254,128,128)" d="m-141.77 96.199999l2.6488 3.949l-1.1458 3.1289l-3.1895 0.24483l-0.16819-4.1395l-4.144702 1.7443l-1.7954-8.4396l-3.3122-4.674l1.9065-1.95l3.0009 0.86016l2.7922 7.2095z" /><path stroke-linecap="butt" stroke-linejoin="round" stroke-width="2" stroke-opacity="1" stroke="rgb(136,136,136)" fill="rgb(254,128,128)" d="m116.22-156.290001l-8.5368 5.5288l1.4997 16.474l-4.3485 6.2409l-1.5022 10.01l-5.8324 2.909l-0.14491 11.678l-6.1971 2.6416l-11.247-7.4557l-3.6043 3.0826l3.3036 5.8997l-14.131 7.0411l-1.4975 8.7787l5.0843 9.8983l-4.7132 5.9736l2.3063 5.73l11.373-7.7155l4.4464 2.8091l5.0978-2.2127l-8.012701-9.5746l-3.6968 1.2191l-3.902-6.0014l5.5791-6.237l4.9815 2.0788l2.535 6.7955l13.994-6.2431l23.201 21.601l12.243-17.627l12.526-4.8504l12.361 3.3337l10.959-4.090202l-4.8699-5.1395l-1.0905-10.451l6.5933-7.2203l-0.32006-3.8483l-11.678 6.6594l-9.5636-4.0899l-20.788-17.701l-5.6296-15.123z" /><path stroke-linecap="butt" stroke-linejoin="round" stroke-width="2" stroke-opacity="1" stroke="rgb(136,136,136)" fill="rgb(254,128,128)" d="m19.8 56.759999l0.1504-9.5952l-3.5501-1.7408l1.8152-3.9771l8.4697-2.4958l3.529-3.7733l5.4984 3.6464l1.792 16.661l-8.4619-3.1881z" /><path stroke-linecap="butt" stroke-linejoin="round" stroke-width="2" stroke-opacity="1" stroke="rgb(136,136,136)" fill="rgb(254,128,128)" d="m60.459999 44.44l-9.1666-4.1826l-13.791 15.236l3.4656 5.3124l5.4426 7.9864l10.099 0.34166l-2.6145-12.864z" /><path stroke-linecap="butt" stroke-linejoin="round" stroke-width="2" stroke-opacity="1" stroke="rgb(136,136,136)" fill="rgb(254,128,128)" d="m35.709999 38.819999l9.1701-4.0385l6.4126 5.4637l-3.4185 11.839l-10.372 3.3968l-3.81-11.494z" /><path stroke-linecap="butt" stroke-linejoin="round" stroke-width="2" stroke-opacity="1" stroke="rgb(136,136,136)" fill="rgb(254,128,128)" d="m40.459999 67.88l2.9969 1.909l-5.3299 4.0792l-2.2893 9.3189l2.7461 0.81684l8.366-4.9624l2.3806-7.2922l7.1808-2.6275l-4.6966-5.7841l-6.3954 1.0992l-4.4498-3.643l-0.99239 3.7672z" /><path stroke-linecap="butt" stroke-linejoin="round" stroke-width="2" stroke-opacity="1" stroke="rgb(136,136,136)" fill="rgb(255,255,255)" d="m-155.756 140.7l-4.9182 3.1549l-4.083-1.6702l-1.4847 2.041399l1.2063 2.5053l-3.4334 2.227l-2.5055 7.052l4.3614 0.27837l2.7839-6.5881l9.6507-4.2683z" /></g></svg></svg>